<?xml version="1.0" encoding="UTF-8"?>
<svg id="Layer_2" data-name="Layer 2" xmlns="http://www.w3.org/2000/svg" viewBox="0 0 304.06 304.06">
  <defs>
    <style>
      .cls-1 {
        fill: #ff6e42;
      }
    </style>
  </defs>
  <g id="Layer_1-2" data-name="Layer 1">
    <g>
      <path class="cls-1" d="M87.49,151.06l-4.09-2.9,49.96-48.48-35.88-37.78C71.14,94.63,41.62,112.62,0,121.32v50.36c67.27,12.37,116.04,62.67,128.36,132.38h48.27c-2.53-31.47-11.75-60.75-27.42-87.09-15.13-25.44-35.9-47.62-61.72-65.92Z"/>
      <path class="cls-1" d="M176.69,0h-49.47c5.92,63.01,36.2,114.38,90.05,152.75l4.44,3.16-4.22,3.47c-16.35,13.42-32.18,27.04-46.14,45.61l35.72,36.05c29.47-35.41,58.03-52.31,97-57.45v-51.11C235.51,118.97,187.12,68.64,176.69,0Z"/>
    </g>
  </g>
</svg>