<?xml version="1.0" encoding="UTF-8"?>
<svg id="Layer_2" data-name="Layer 2" xmlns="http://www.w3.org/2000/svg" viewBox="0 0 546.72 130.74">
  <defs>
    <style>
      .cls-1 {
        fill: #ff6e42;
      }
    </style>
  </defs>
  <g id="Layer_1-2" data-name="Layer 1">
    <g>
      <g>
        <path class="cls-1" d="M391.28,29.34c-4.03,0-7.62,3.25-8.53,7.76l-10.7,43-13.14-40.34c-1.59-6.16-6.37-10.29-11.88-10.29s-10.28,4.18-11.75,10.22l-12.94,40.47-10.57-43c-.92-4.53-4.51-7.82-8.54-7.82-2.54,0-4.87,1.2-6.55,3.37-2.04,2.64-2.74,6.24-1.86,9.63l12.76,49.14c1.75,7.29,7.2,12.19,13.57,12.19s11.62-4.74,13.43-11.56l12.66-39.98,12.44,39.64c1.86,7.12,7.31,11.9,13.57,11.9s11.96-4.99,13.68-12.16l12.89-49.22c.77-3.49-.03-7.13-2.13-9.74-1.67-2.07-3.94-3.22-6.4-3.22Z"/>
        <path class="cls-1" d="M248.02,27.73c-11,0-20.73,4.81-26.02,12.87l-.63.96-.54-1.02c-4.47-8.38-12.31-12.81-22.67-12.81-8.31,0-15.78,3.37-20.49,9.23l-.83.92-.43-1.39v-.09c-.27-4.87-4.28-8.68-9.13-8.68s-9.18,4.12-9.18,9.18v56.79c0,5.78,3.7,9.97,8.8,9.97s8.57-4.19,8.57-9.97v-25.05c0-7.63,2.42-20.44,18.65-20.44s18.77,12.64,18.77,20.17v25.32c0,5.78,3.61,9.97,8.57,9.97s8.79-4.19,8.79-9.97v-25.59c0-9.08,3.08-19.9,17.76-19.9,11.86,0,17.87,6.29,17.87,18.7v26.79c0,5.78,3.7,9.97,8.79,9.97,4.82,0,8.46-4.29,8.46-9.97v-29.21c0-22.68-13.46-36.77-35.12-36.77Z"/>
        <path class="cls-1" d="M457.64,29.1c-.41,0-.83.04-1.27.11-9.2.61-16.93,3.79-22.34,9.17l-.98.97-.18-1.37c-.64-4.85-4.46-8.65-8.7-8.65-4.71,0-8.68,4.63-8.68,10.11v53.99c0,5.55,4.03,10.24,8.79,10.24s8.68-4.69,8.68-10.24v-23.84c.1-12.78,9.41-20.72,24.3-20.72h.83c4.42-.32,8.02-4.73,8.02-9.83,0-5.48-3.81-9.94-8.49-9.94Z"/>
        <path class="cls-1" d="M538.04,0c-4.81,0-8.56,4.38-8.56,9.96v26.31l-1.19-1.31c-5.25-5.77-12.98-8.59-23.64-8.59-18.98,0-32.76,15.98-32.76,37.98,0,24.25,12.47,39.31,32.54,39.31,10.47,0,18.54-3.37,23.99-10l.97-1.17.24,1.48c.09.6.25,1.19.47,1.91.29,4.36,3.93,7.77,8.28,7.77,4.6,0,8.35-3.75,8.35-8.35V9.96C546.72,4.38,542.9,0,538.04,0ZM508,85.61c-12.92,0-20.34-7.41-20.34-20.3s7.04-20.17,20.34-20.17c14.29,0,21.23,6.9,21.23,21.1,0,12.67-7.34,19.37-21.23,19.37Z"/>
      </g>
      <path class="cls-1" d="M64.16,93.29c6.74,11.33,10.7,23.92,11.79,37.45h-20.76c-5.3-29.97-26.27-51.6-55.19-56.92v-21.66c17.89-3.74,30.59-11.48,41.92-25.55l15.43,16.25-21.48,20.84,1.76,1.25c11.11,7.87,20.03,17.41,26.54,28.34ZM75.97,0h-21.27c2.55,27.09,15.56,49.18,38.72,65.68l1.91,1.36-1.82,1.49c-7.03,5.77-13.84,11.63-19.84,19.61l15.36,15.5c12.67-15.22,24.95-22.49,41.71-24.7v-21.98c-29.48-5.81-50.28-27.45-54.77-56.96Z"/>
    </g>
  </g>
</svg>