<?xml version="1.0" encoding="UTF-8"?>
<svg id="Layer_2" data-name="Layer 2" xmlns="http://www.w3.org/2000/svg" viewBox="0 0 600 220.3">
  <defs>
    <style>
      .cls-1 {
        fill: #ff6e42;
      }
    </style>
  </defs>
  <g id="Layer_1-2" data-name="Layer 1">
    <g>
      <path class="cls-1" d="M507.71,0h-35.84c4.28,45.66,26.23,82.86,65.25,110.66l3.21,2.3-3.06,2.49c-11.85,9.73-23.31,19.62-33.44,33.05l25.89,26.13c21.34-25.65,42.05-37.9,70.28-41.63v-37.02c-49.66-9.79-84.74-46.27-92.29-95.99ZM487.82,157.2c-10.98-18.43-26.01-34.5-44.72-47.75l-2.97-2.12,36.2-35.11-25.98-27.38c-19.1,23.71-40.48,36.75-70.64,43.05v36.5c48.75,8.94,84.07,45.39,92.99,95.9h34.99c-1.85-22.8-8.52-44.02-19.86-63.09Z"/>
      <g>
        <path class="cls-1" d="M192.51,25.9c.75.56,1.64.86,2.56.86h.02c.1,0,.21,0,.3-.01.36-.03.71-.1,1.08-.22l44.11-16.69c1.75-.69,2.8-2.34,2.8-4.47-.1-1.36-.78-2.58-1.85-3.36-.71-.52-1.55-.79-2.43-.79-.46,0-.92.08-1.38.23l-43.91,16.13c-1.9.49-3.23,2.4-3.23,4.62.09,1.51.8,2.86,1.94,3.7Z"/>
        <path class="cls-1" d="M306.21,3.09c-4.7,0-8.55,4.46-8.55,9.97,0,1.3.27,2.64.79,3.85l.24.58-2.24.91c-2.03,1.03-3.06,3.37-2.43,5.52.52,1.76,1.88,2.85,3.49,2.85.58,0,1.15-.12,1.7-.39l8.64-3.55c4.4-1.73,6.82-5.18,6.82-9.76,0-5.52-3.79-9.97-8.46-9.97ZM306,16.34c-1.73,0-3.06-1.7-3.06-4,0-2,1.39-3.67,3.06-3.67s3.09,1.67,3.09,3.67c0,2.3-1.33,4-3.09,4Z"/>
        <path class="cls-1" d="M207.85,154.02c-3.6,0-6.79,2.9-7.6,6.92l-9.54,38.33-11.72-35.96c-1.42-5.49-5.68-9.17-10.59-9.17s-9.16,3.73-10.48,9.11l-11.54,36.08-9.42-38.33c-.82-4.04-4.02-6.97-7.61-6.97-2.27,0-4.34,1.07-5.84,3.01-1.82,2.35-2.44,5.56-1.66,8.58l11.38,43.81c1.56,6.5,6.42,10.87,12.1,10.87s10.36-4.23,11.97-10.3l11.29-35.64,11.09,35.34c1.66,6.34,6.51,10.6,12.09,10.6s10.67-4.45,12.19-10.84l11.49-43.88c.68-3.11-.03-6.35-1.9-8.68-1.49-1.85-3.51-2.87-5.71-2.87Z"/>
        <path class="cls-1" d="M80.15,152.59c-9.81,0-18.48,4.29-23.19,11.47l-.56.86-.48-.91c-3.99-7.47-10.98-11.42-20.21-11.42-7.41,0-14.07,3-18.27,8.23l-.74.82-.38-1.24v-.08c-.24-4.34-3.81-7.74-8.14-7.74s-8.18,3.67-8.18,8.18v50.63c0,5.15,3.3,8.89,7.84,8.89s7.64-3.74,7.64-8.89v-22.33c0-6.8,2.16-18.22,16.63-18.22s16.73,11.27,16.73,17.98v22.57c0,5.15,3.21,8.89,7.64,8.89s7.84-3.74,7.84-8.89v-22.81c0-8.09,2.75-17.74,15.83-17.74,10.57,0,15.93,5.61,15.93,16.67v23.88c0,5.15,3.3,8.89,7.84,8.89,4.3,0,7.54-3.82,7.54-8.89v-26.03c0-20.22-12-32.78-31.31-32.78Z"/>
        <path class="cls-1" d="M267.01,153.81c-.36,0-.74.03-1.13.1-8.21.55-15.09,3.38-19.91,8.18l-.87.87-.16-1.22c-.57-4.33-3.98-7.72-7.75-7.72-4.19,0-7.74,4.12-7.74,9.01v48.13c0,4.95,3.59,9.13,7.84,9.13s7.74-4.18,7.74-9.13v-21.25c.09-11.39,8.39-18.47,21.67-18.47h.74c3.94-.28,7.15-4.22,7.15-8.76,0-4.89-3.39-8.86-7.57-8.86Z"/>
        <path class="cls-1" d="M338.68,127.85c-4.31,0-7.64,3.91-7.64,8.88v23.47l-1.06-1.18c-4.67-5.12-11.58-7.64-21.07-7.64-16.92,0-29.2,14.25-29.2,33.87,0,21.62,11.1,35.05,29.01,35.05,9.31,0,16.52-3,21.37-8.94l.85-1.03.21,1.33c.09.55.21,1.06.42,1.7.27,3.88,3.52,6.94,7.37,6.94,4.12,0,7.46-3.33,7.46-7.46v-76.1c0-4.97-3.4-8.88-7.73-8.88ZM311.91,204.17c-11.52,0-18.13-6.58-18.13-18.1s6.28-17.95,18.13-17.95c12.73,0,18.92,6.12,18.92,18.8,0,11.28-6.55,17.25-18.92,17.25Z"/>
        <path class="cls-1" d="M63.98,100.66h59.33c6.92,0,12.03-5.89,12.13-14l.2-10.65c0-9.43-2.99-22.39-9.56-28.57-8.74-8.6-22.17-10.66-31.9-10.87-.73-.02-1.47-.03-2.19-.03-7.24,0-13.94.99-18.96,1.84-2.02.39-3.77,1.56-4.93,3.28-1.28,1.9-1.72,4.27-1.26,6.66.8,4.16,3.65,6.84,7.29,6.84.44,0,.89-.04,1.35-.12,3.18-.58,9.59-1.54,16.84-1.54,7.99,0,18.73,1.21,24.54,6.96,2.79,2.61,4.3,9.96,4.3,15.54v6.81c0,.28-.08.48-.15.6l-.18.3h-56.85c-4.35,0-7.64,3.62-7.64,8.41s3.28,8.53,7.64,8.53Z"/>
        <path class="cls-1" d="M135.67,124.02c1.34,1.59,3.12,2.49,5.01,2.55.64.03,1.3.05,1.95.05,1.98,0,3.94-.14,5.83-.41,7.54-.76,13.96-3.62,18.56-8.26,5.66-5.95,8.53-14.27,8.53-24.75v-48.1c0-4.7-3.25-8.53-7.34-8.53s-7.24,3.83-7.24,8.53v48.1c0,5.52-1.19,9.41-3.6,11.85-2.44,2.84-7.06,4.28-13.74,4.28-.87,0-1.68-.03-2.46-.06h-.23c-3.6,0-6.75,3.13-7.33,7.29-.37,2.71.4,5.5,2.06,7.46Z"/>
        <path class="cls-1" d="M320.4,36.32h-37.84c-5.15,0-9.34,4.91-9.34,10.95v28.5c0,4.46-2.85,7.94-6.46,7.94h-14.13v-35.38c0-6.06-4.06-10.79-9.22-10.79h-30.47c-13.89,0-24.83,13.04-24.92,29.65,0,15.55,10.88,33.59,24.92,33.59h24.95l-.18.73c-.55,2.64-1.67,4.88-3.36,6.67-3.43,3.24-9.25,4.88-17.22,4.88-2.33,0-4.76-.15-7.49-.42-.3-.06-.61-.06-.94-.06-3.21,0-6.09,2.76-6.88,6.55-.49,2.49.06,5.03,1.52,7.06,1.18,1.7,2.88,2.76,4.73,3,2.15.33,5.52.73,9.16.73,11.43,0,20.25-3,26.23-8.94,5.03-4.76,8.34-11.98,9.07-19.77l.06-.55h14.19c5.46,0,10.79-3,14.31-8.06l.46-.64.48.58c4.55,5.25,10.58,8.13,17.01,8.13h21.59c5.37,0,10.58-2.4,15.07-6.94,6.7-6.7,10.79-17.16,10.73-27.26-.09-16.61-11.76-30.14-26.01-30.14ZM238.24,83.95h-25.5c-5.4,0-10.13-9.16-10.22-16.64,0-7.46,4.52-13.1,10.52-13.1h24.07c.58,0,1.12.82,1.12,1.64v28.11ZM320.61,84.32h-21.59c-6,0-11.34-9.85-11.34-17.58v-11.85c0-.85.58-1.61,1.24-1.61h31.47c6.15,0,11.34,6.09,11.34,13.34,0,7.97-5.15,17.71-11.13,17.71Z"/>
      </g>
    </g>
  </g>
</svg>