<?xml version="1.0" encoding="UTF-8"?>
<svg id="Layer_2" data-name="Layer 2" xmlns="http://www.w3.org/2000/svg" viewBox="0 0 510.48 148.48">
  <defs>
    <style>
      .cls-1 {
        fill: #ff6e42;
      }
    </style>
  </defs>
  <g id="Layer_1-2" data-name="Layer 1">
    <g>
      <path class="cls-1" d="M434.86,105.96c7.65,12.86,12.15,27.16,13.39,42.53h-23.57c-6.02-34.04-29.83-58.6-62.68-64.64v-24.59c20.32-4.25,34.74-13.03,47.6-29.02l17.52,18.45-24.4,23.67,2,1.42c12.61,8.94,22.75,19.77,30.14,32.19ZM448.28,0h-24.16c2.89,30.77,17.68,55.85,43.98,74.59l2.17,1.54-2.06,1.69c-7.98,6.55-15.72,13.2-22.53,22.27l17.44,17.61c14.39-17.29,28.34-25.55,47.37-28.05v-24.96C477,58.1,453.37,33.52,448.28,0Z"/>
      <g>
        <path class="cls-1" d="M155.67,28.22c.86.64,1.88.98,2.92.98h.02c.12,0,.24,0,.34-.01.41-.03.81-.11,1.24-.25l50.42-19.08c2-.79,3.2-2.68,3.2-5.1-.12-1.55-.89-2.95-2.11-3.84-.81-.59-1.78-.91-2.78-.91-.52,0-1.05.09-1.58.26l-50.19,18.44c-2.17.56-3.69,2.75-3.69,5.29.11,1.73.91,3.27,2.21,4.23Z"/>
        <path class="cls-1" d="M275.71,29.2c.64,0,1.29-.15,1.92-.43l9.9-4.08c5.01-1.95,7.77-5.91,7.77-11.16,0-6.28-4.33-11.39-9.65-11.39s-9.77,5.11-9.77,11.39c0,1.5.31,3.03.89,4.41l.26.64-2.53,1.06c-2.34,1.19-3.51,3.85-2.78,6.31.6,2,2.13,3.25,3.99,3.25ZM285.42,8.53c1.93,0,3.51,1.88,3.51,4.18,0,2.62-1.51,4.59-3.51,4.59s-3.51-1.97-3.51-4.59c0-2.3,1.58-4.18,3.51-4.18Z"/>
        <path class="cls-1" d="M90.65,85.49c0-10.78-3.42-25.59-10.93-32.66-10-9.84-25.34-12.18-36.46-12.42-.84-.02-1.68-.03-2.51-.03-8.28,0-15.94,1.13-21.67,2.11-2.31.45-4.31,1.78-5.63,3.75-1.46,2.17-1.97,4.88-1.43,7.61.91,4.75,4.18,7.82,8.33,7.82.5,0,1.02-.04,1.55-.13,3.63-.66,10.96-1.76,19.25-1.76,9.13,0,21.41,1.38,28.05,7.95,3.19,2.98,4.91,11.38,4.91,17.77v7.78c0,.32-.09.55-.17.69l-.2.34H8.73c-4.98,0-8.73,4.13-8.73,9.62s3.75,9.75,8.73,9.75h67.82c7.91,0,13.75-6.73,13.87-16.01l.23-12.18Z"/>
        <path class="cls-1" d="M127.88,40.41c-4.56,0-8.28,4.38-8.28,9.75v54.99c0,6.31-1.36,10.75-4.11,13.54-2.79,3.25-8.07,4.9-15.7,4.9-.99,0-1.93-.03-2.81-.07h-.26c-4.12,0-7.72,3.58-8.38,8.33-.42,3.1.46,6.29,2.35,8.53,1.53,1.81,3.56,2.85,5.73,2.92.74.04,1.48.05,2.23.05,2.27,0,4.5-.16,6.66-.47,8.62-.87,15.96-4.14,21.21-9.44,6.47-6.8,9.75-16.32,9.75-28.29v-54.99c0-5.38-3.71-9.75-8.39-9.75Z"/>
        <path class="cls-1" d="M301.86,40.14h-43.27c-5.88,0-10.67,5.6-10.67,12.48v32.6c0,5.09-3.23,9.08-7.37,9.08h-16.15v-40.46c0-6.92-4.63-12.34-10.55-12.34h-34.83c-15.85,0-28.36,14.9-28.49,33.91,0,17.76,12.45,38.4,28.49,38.4h28.52l-.18.84c-.64,3.02-1.93,5.57-3.85,7.61-3.94,3.7-10.57,5.58-19.71,5.58-2.64,0-5.42-.15-8.55-.48-.35-.05-.71-.08-1.06-.08-3.68,0-6.99,3.15-7.87,7.49-.56,2.83.07,5.78,1.71,8.08,1.38,1.93,3.3,3.15,5.41,3.43,2.47.39,6.3.85,10.49.85,13.04,0,23.13-3.44,29.98-10.23,5.75-5.45,9.52-13.69,10.36-22.6l.06-.63h16.22c6.24,0,12.35-3.44,16.36-9.21l.51-.74.58.68c5.17,5.98,12.07,9.27,19.43,9.27h24.67c6.13,0,12.09-2.74,17.24-7.93,7.64-7.68,12.34-19.62,12.26-31.15-.11-19-13.45-34.45-29.74-34.45ZM207.96,94.58h-29.16c-6.17,0-11.6-10.46-11.71-19.03,0-8.53,5.18-14.96,12.05-14.96h27.51c.67,0,1.31.9,1.31,1.86v32.13ZM302.1,94.99h-24.67c-6.86,0-12.96-11.25-12.96-20.12v-13.52c0-1,.65-1.84,1.43-1.84h35.96c7.03,0,12.97,6.97,12.97,15.22,0,9.12-5.88,20.26-12.73,20.26Z"/>
      </g>
    </g>
  </g>
</svg>